<svg width="35" height="31" viewBox="0 0 35 31" fill="none" xmlns="http://www.w3.org/2000/svg">
<path fill-rule="evenodd" clip-rule="evenodd" d="M28.9423 30.7414C32.6525 27.5325 35 22.7904 35 17.5C35 7.83502 27.165 0 17.5 0C7.83502 0 0 7.83502 0 17.5C0 22.7904 2.34753 27.5325 6.05774 30.7414C7.99574 26.1724 12.3898 22.9832 17.5 22.9832C22.6102 22.9832 27.0043 26.1724 28.9423 30.7414ZM24 12.9957C24 16.5856 21.0899 19.4957 17.5 19.4957C13.9101 19.4957 11 16.5856 11 12.9957C11 9.40587 13.9101 6.49572 17.5 6.49572C21.0899 6.49572 24 9.40587 24 12.9957Z" fill="white"/>
</svg>
