<svg width="35" height="35" viewBox="0 0 35 35" fill="none" xmlns="http://www.w3.org/2000/svg">
<path fill-rule="evenodd" clip-rule="evenodd" d="M35 17.5C35 27.165 27.165 35 17.5 35C7.83501 35 0 27.165 0 17.5C0 7.83502 7.83501 0 17.5 0C27.165 0 35 7.83502 35 17.5ZM23.689 13.4756H21.6138L21.0645 15.1235C20.4297 13.675 19.4124 12.9507 18.0127 12.9507C16.3363 12.967 14.8551 13.6668 13.5693 15.0503C12.251 16.45 11.5918 18.0573 11.5918 19.8721C11.5918 20.9544 11.8766 21.9066 12.4463 22.7285C13.2275 23.876 14.3018 24.4497 15.6689 24.4497C16.9385 24.4497 18.1226 23.8516 19.2212 22.6553C19.4491 23.9329 20.3646 24.5718 21.9678 24.5718C23.7988 24.5718 25.3491 23.8312 26.6187 22.3501C28.0509 20.6492 28.7671 18.7897 28.7671 16.7715C28.7671 16.4216 28.7427 16.0716 28.6938 15.7217C28.3927 13.4756 27.2738 11.5672 25.3369 9.99658C23.2943 8.31201 20.8895 7.46973 18.1226 7.46973C17.5041 7.46973 16.8856 7.52264 16.2671 7.62842C13.7524 8.04346 11.5959 9.06885 9.79736 10.7046C9.21143 11.2173 8.68652 11.7991 8.22266 12.4502C6.63574 14.6149 5.84229 16.9831 5.84229 19.5547C5.84229 19.9372 5.8667 20.3196 5.91553 20.7021C6.23291 23.1517 7.40885 25.2065 9.44336 26.8667C11.6244 28.6489 14.2163 29.54 17.2192 29.54C19.1154 29.54 20.9994 29.1901 22.8711 28.4902L22.1631 26.8179C20.2669 27.355 18.6597 27.6235 17.3413 27.6235C14.6395 27.6235 12.3893 26.7894 10.5908 25.1211C8.84115 23.5098 7.96631 21.5281 7.96631 19.1763C7.96631 16.8081 8.79232 14.6841 10.4443 12.8042L11.2866 11.9497C13.1746 10.2488 15.3434 9.39844 17.793 9.39844H18.1714C20.5151 9.49609 22.513 10.314 24.165 11.8521C25.7845 13.3332 26.5942 15.0747 26.5942 17.0767C26.5942 18.5252 26.167 19.8395 25.3125 21.0195C24.4336 22.2239 23.4611 22.8262 22.395 22.8262C22.2078 22.8262 22.0329 22.7936 21.8701 22.7285C21.3818 22.5088 21.1377 22.1751 21.1377 21.7275C21.1377 21.4753 21.2394 21.0562 21.4429 20.4702L23.689 13.4756ZM14.9731 16.3198C15.8032 15.1398 16.7676 14.5498 17.8662 14.5498C18.3464 14.5498 18.7899 14.6678 19.1968 14.9038C19.8804 15.3351 20.2222 15.9617 20.2222 16.7837V16.9546C20.2059 17.2313 20.1611 17.5527 20.0879 17.9189C19.8275 19.3268 19.4206 20.4295 18.8672 21.2271C18.1348 22.3094 17.2843 22.8506 16.3159 22.8506C15.8521 22.8506 15.4207 22.7082 15.022 22.4233C14.2326 21.8618 13.8379 21.0195 13.8379 19.8965C13.8379 18.5618 14.2163 17.3696 14.9731 16.3198Z" fill="white"/>
</svg>
