<svg width="35" height="34" viewBox="0 0 35 34" fill="none" xmlns="http://www.w3.org/2000/svg">
<path fill-rule="evenodd" clip-rule="evenodd" d="M17.4984 0C7.83495 0 0 7.80371 0 17.4308C0 25.1317 5.01381 31.6643 11.9678 33.9702C12.8434 34.1296 13.1625 33.5914 13.1625 33.1291C13.1625 32.7161 13.1474 31.6193 13.1388 30.1652C8.27113 31.2181 7.24409 27.8282 7.24409 27.8282C6.44802 25.8155 5.30066 25.2794 5.30066 25.2794C3.71175 24.1976 5.42098 24.219 5.42098 24.219C7.17748 24.3431 8.10139 26.0156 8.10139 26.0156C9.66236 28.6789 12.1977 27.9095 13.1947 27.4644C13.3537 26.3377 13.8049 25.5694 14.3055 25.1339C10.4198 24.6941 6.33414 23.1982 6.33414 16.5191C6.33414 14.6166 7.01633 13.0608 8.13577 11.842C7.95528 11.4011 7.35474 9.62918 8.30658 7.22911C8.30658 7.22911 9.77624 6.76044 13.1195 9.01606C14.515 8.62978 16.0126 8.4361 17.5005 8.42968C18.9863 8.4361 20.4839 8.62978 21.8816 9.01606C25.2227 6.76044 26.6891 7.22911 26.6891 7.22911C27.6442 9.62918 27.0436 11.4011 26.8632 11.842C27.9847 13.0608 28.6626 14.6166 28.6626 16.5191C28.6626 23.2153 24.5706 24.6888 20.6719 25.12C21.3004 25.6582 21.8601 26.7218 21.8601 28.3483C21.8601 30.6777 21.8386 32.5577 21.8386 33.1291C21.8386 33.5957 22.1534 34.1382 23.0418 33.968C29.9905 31.6579 35 25.1296 35 17.4308C35 7.80371 27.164 0 17.4984 0Z" fill="white"/>
</svg>
