<svg width="35" height="35" viewBox="0 0 35 35" fill="none" xmlns="http://www.w3.org/2000/svg">
<path fill-rule="evenodd" clip-rule="evenodd" d="M0 17.5C0 7.83453 7.83453 0 17.5 0C27.1655 0 35 7.83453 35 17.5C35 27.1644 27.1655 35 17.5 35C7.83453 35 0 27.1644 0 17.5ZM22.4043 18.2952C21.4232 20.4323 19.7684 21.5097 17.442 21.5272C15.4536 21.5086 13.9693 20.8316 12.9882 19.4928C12.0159 18.1825 11.5303 16.5266 11.5303 14.5239C11.5303 12.5759 12.0421 10.9375 13.067 9.6086C14.0645 8.27094 15.5236 7.58407 17.4431 7.54797C18.5445 7.54797 19.5529 7.82141 20.464 8.36938C21.3675 8.9261 22.015 9.74751 22.4054 10.8336H22.4568V7.87063H23.4729V21.3106C23.4729 21.5983 23.4467 22.0741 23.3942 22.738C23.3253 23.4019 23.112 24.103 22.7565 24.8391C22.3989 25.5752 21.8137 26.1909 20.9978 26.6842C20.1731 27.1961 19.0214 27.452 17.5459 27.452C16.0518 27.452 14.8192 27.1239 13.8468 26.4688C12.8482 25.7873 12.297 24.6466 12.1931 23.0486H13.2092C13.3481 24.278 13.825 25.1672 14.642 25.7152C15.4404 26.2719 16.4171 26.5508 17.5721 26.5508C18.7709 26.5322 19.7039 26.3036 20.3732 25.8639C21.0492 25.4603 21.5403 24.9703 21.8443 24.3961C22.1473 23.7858 22.3343 23.2148 22.4043 22.6855C22.4382 22.1736 22.4557 21.7973 22.4557 21.5545V18.2952H22.4043ZM17.442 8.45032C15.7915 8.49516 14.5676 9.12407 13.7692 10.3359C12.9445 11.5478 12.5311 12.9434 12.5311 14.5261C12.5311 16.2138 12.9521 17.6367 13.7943 18.795C14.6278 19.9883 15.844 20.5986 17.442 20.6259C19.1351 20.5986 20.3886 19.9708 21.2056 18.7403C22.0215 17.582 22.4295 16.1777 22.4295 14.525C22.4295 12.8723 22.0215 11.4592 21.2056 10.2823C20.3896 9.10547 19.1351 8.49516 17.442 8.45032Z" fill="white"/>
</svg>
