<svg width="35" height="35" viewBox="0 0 35 35" fill="none" xmlns="http://www.w3.org/2000/svg">
<path fill-rule="evenodd" clip-rule="evenodd" d="M35 17.5C35 27.165 27.165 35 17.5 35C7.83502 35 0 27.165 0 17.5C0 7.83502 7.83502 0 17.5 0C27.165 0 35 7.83502 35 17.5ZM9.33342 25.448H12.6876V14.6563H9.33342V25.448ZM8.823 11.375C8.823 12.4688 9.62508 13.2709 10.8647 13.2709C12.1772 13.2709 12.9063 12.4688 12.9063 11.375C12.9063 10.2813 12.1042 9.4792 10.8647 9.4792C9.62508 9.4792 8.823 10.2813 8.823 11.375ZM22.3126 25.448H26.1772V19.323C26.1772 15.9688 24.2813 14.4375 21.8751 14.4375C19.9792 14.4375 18.7397 15.5313 18.5209 16.2604V14.5834H14.7292C14.8022 15.4584 14.7292 25.375 14.7292 25.375H18.5209V19.5417C18.5209 19.25 18.5209 18.8855 18.5938 18.6667C18.8855 18.0105 19.3959 17.3542 20.4167 17.3542C21.7292 17.3542 22.3126 18.375 22.3126 19.8334V25.448Z" fill="white"/>
</svg>
