<svg width="35" height="35" viewBox="0 0 35 35" fill="none" xmlns="http://www.w3.org/2000/svg">
<path fill-rule="evenodd" clip-rule="evenodd" d="M35 17.5C35 27.165 27.165 35 17.5 35C7.83502 35 0 27.165 0 17.5C0 7.83502 7.83502 0 17.5 0C27.165 0 35 7.83502 35 17.5ZM19.0679 12.4928C16.0333 13.7572 7.28326 17.3483 7.28326 17.3483C5.20956 18.1575 6.42343 18.9162 6.42343 18.9162C6.42343 18.9162 8.19367 19.5231 9.71101 19.9783C11.2283 20.4335 12.0376 19.9278 12.0376 19.9278C12.0376 19.9278 15.5781 17.6012 19.1691 15.1228C21.698 13.4032 21.0911 14.8194 20.4841 15.4263C19.1691 16.7413 16.9942 18.815 15.1734 20.4841C14.3642 21.1922 14.7688 21.7991 15.1229 22.1026C16.1521 22.9735 18.5756 24.557 19.6773 25.2769C19.9832 25.4768 20.1873 25.6101 20.2312 25.6431C20.4841 25.8454 21.9003 26.7558 22.7601 26.5535C23.62 26.3512 23.7211 25.1879 23.7211 25.1879C23.7211 25.1879 24.3786 21.0405 24.9856 17.2471C25.0979 16.5027 25.2103 15.7738 25.3151 15.0942C25.5876 13.3265 25.8089 11.8915 25.8454 11.3801C25.9971 9.66041 24.1763 10.3685 24.1763 10.3685C24.1763 10.3685 20.2312 11.987 19.0679 12.4928Z" fill="white"/>
</svg>
